<svg width="53" height="64" viewBox="0 0 53 64" fill="none" xmlns="http://www.w3.org/2000/svg">
<path fill-rule="evenodd" clip-rule="evenodd" d="M33.6734 6.02675C29.1816 6.2777 24.7202 6.92014 20.3401 7.94675C19.6734 7.94675 14.8201 8.66675 14.2601 8.90675C14.1566 8.93049 14.0594 8.97601 13.975 9.04028C13.8905 9.10454 13.8207 9.18608 13.7702 9.27945C13.7198 9.37282 13.6898 9.47587 13.6823 9.58174C13.6748 9.68761 13.6899 9.79387 13.7267 9.89342C14.0734 10.9067 22.4734 9.89342 34.0734 8.96008C37.5401 8.50675 39.9401 7.78675 43.1934 7.14675C44.9085 6.89856 46.5961 6.48782 48.2334 5.92008C48.287 5.8194 48.3192 5.70871 48.328 5.59498C48.3368 5.48125 48.3219 5.36693 48.2843 5.25923C48.2467 5.15153 48.1873 5.05276 48.1097 4.96916C48.0321 4.88555 47.938 4.8189 47.8334 4.77342C47.3534 4.26675 46.8201 4.56008 33.6734 6.02675Z" fill="#343434"/>
<path fill-rule="evenodd" clip-rule="evenodd" d="M51.6734 42.6667V11.7067C51.6734 11.44 52.0734 10.3734 50.9001 10.3734C50.66 10.3734 46.5 11.2 46.2334 11.2534L37.5134 11.9467C31.9667 12.48 26.3934 12.6667 20.8467 13.04C13.3001 13.5734 12.8467 14.0534 9.75338 13.6534C8.60672 13.4934 7.46005 13.36 7.08672 12.6667C6.91135 12.2074 6.88125 11.7054 7.00048 11.2285C7.11971 10.7515 7.38252 10.3227 7.75338 10C10.5001 6.64004 16.1267 5.33337 20.3667 4.29337C30.1534 1.92004 33.5134 2.80004 40.3934 2.3467C44.3134 2.08004 46.7934 1.81337 46.5267 0.613369C46.5078 0.510761 46.4683 0.413049 46.4105 0.326115C46.3528 0.239182 46.2781 0.164826 46.1909 0.107523C46.1037 0.0502206 46.0058 0.011157 45.9032 -0.00731566C45.8005 -0.0257883 45.6951 -0.0232878 45.5934 3.51612e-05C36.0734 2.05337 31.0067 -2.02663 12.2334 3.7067C2.50005 6.80004 -0.166615 17.04 12.2601 16.7734C10.4956 29.8967 10.0935 43.1673 11.0601 56.3734C11.0601 58.5334 11.0601 59.84 11.8601 60.1067C13.4334 60.56 13.1134 58.1067 13.0334 56.3734C13.0334 40.8 13.7534 46 13.7801 27.04C13.7801 15.4667 13.7801 16.56 14.0467 16.5334C22.6067 15.3067 40.7134 14.2667 49.7534 12.4C48.9534 65.7334 49.4601 33.8667 49.5667 48.3734C49.5941 49.1148 49.5405 49.857 49.4067 50.5867C49.0867 52.5867 26.6601 58.4534 21.7534 59.6534C15.4867 61.2267 10.6601 61.68 4.74005 58.96C2.07338 53.4134 3.08672 24.4267 3.59339 18.96C3.6146 18.7549 3.55347 18.5498 3.42345 18.3898C3.29342 18.2297 3.10515 18.1279 2.90005 18.1067C2.69495 18.0855 2.48982 18.1466 2.32979 18.2766C2.16976 18.4067 2.06794 18.5949 2.04672 18.8C1.38005 24.2934 -0.353282 52.3734 1.83338 59.2C2.42005 61.0667 3.22005 61.44 4.87339 62.1334C8.30272 63.6965 12.08 64.3398 15.8334 64C24.9495 62.4861 33.8855 60.0376 42.5001 56.6934C44.8331 56.0719 47.1226 55.2969 49.3534 54.3734C53.8601 51.9467 51.7267 47.4134 51.6734 42.6667Z" fill="#343434"/>
<path fill-rule="evenodd" clip-rule="evenodd" d="M21.1668 35.2267C22.8468 35.6801 24.6068 35.2267 36.3401 33.1734C38.1001 32.8534 40.8201 32.6934 41.6734 31.0134C42.1768 29.4275 42.2776 27.7413 41.9668 26.1067C41.9668 24.8267 43.4868 19.1201 40.2601 19.2534C40.1001 19.2534 21.0068 22.2401 19.8068 22.2667C19.5734 22.2667 19.3495 22.3594 19.1845 22.5245C19.0195 22.6895 18.9268 22.9133 18.9268 23.1467C18.9268 23.8401 19.1668 22.4267 18.9268 26.7201C19.1401 29.7067 17.6734 34.2134 21.1668 35.2267ZM20.9268 24.0001C22.9534 24.0001 17.4601 24.1601 40.1001 22.2134C39.4868 30.9867 39.8868 29.4401 35.9134 30.2134C22.8201 32.8801 21.8868 33.4667 21.3268 32.8801C20.7668 32.2934 21.1668 28.2667 20.9801 26.6667C20.9801 26.5067 20.9001 24.9334 20.9268 24.0001Z" fill="#003366"/>
<path fill-rule="evenodd" clip-rule="evenodd" d="M39.2467 40C39.3428 39.8318 39.39 39.64 39.3829 39.4463C39.3758 39.2527 39.3148 39.0648 39.2066 38.904C39.0985 38.7432 38.9476 38.6158 38.7709 38.5362C38.5942 38.4566 38.3988 38.4279 38.2067 38.4534C37.4334 38.4534 35.5401 38.6667 35.0601 38.6667C30.9353 38.591 26.819 39.0663 22.8201 40.08C21.1667 39.8934 21.5401 41.0667 22.3934 41.4934C24.5267 43.3067 38.6867 40.6134 39.2467 40Z" fill="#003366"/>
<path fill-rule="evenodd" clip-rule="evenodd" d="M22.7934 52.1067C23.4028 52.1111 24.0109 52.0485 24.6067 51.9201C26.6417 51.8727 28.672 51.7035 30.6867 51.4134C33.86 50.8801 36.82 49.7601 39.6734 49.5201C39.8838 49.4836 40.0746 49.3739 40.2122 49.2105C40.3497 49.0471 40.4251 48.8403 40.4251 48.6267C40.4251 48.4131 40.3497 48.2064 40.2122 48.043C40.0746 47.8795 39.8838 47.7699 39.6734 47.7334C32.42 47.1201 22.5 50.4001 22.2867 51.0134C22.0734 51.6267 22.42 51.9201 22.7934 52.1067Z" fill="#003366"/>
</svg>
